<?xml version="1.0" standalone="no"?>
<!DOCTYPE svg PUBLIC "-//W3C//DTD SVG 20010904//EN"
 "http://www.w3.org/TR/2001/REC-SVG-20010904/DTD/svg10.dtd">
<svg version="1.0" xmlns="http://www.w3.org/2000/svg"
 width="512.000000pt" height="512.000000pt" viewBox="0 0 512.000000 512.000000"
 preserveAspectRatio="xMidYMid meet">

<g transform="translate(0.000000,512.000000) scale(0.100000,-0.100000)"
fill="#ffffff" stroke="none">
<path d="M205 4761 c-56 -14 -106 -43 -140 -83 -70 -82 -65 35 -64 -1672 0
-1153 3 -1549 12 -1573 23 -62 73 -119 128 -146 l53 -27 873 0 873 0 0 -81 c0
-234 -125 -473 -313 -597 l-40 -27 -415 -5 -414 -5 -24 -28 c-42 -49 -27 -124
31 -152 29 -13 223 -15 1769 -15 1863 0 1788 -2 1815 48 21 39 13 91 -18 123
l-29 29 -379 0 c-368 0 -379 1 -413 21 -195 119 -330 367 -330 608 l0 81 873
0 873 0 53 27 c55 27 105 84 128 146 9 24 12 420 12 1573 1 1696 5 1588 -60
1667 -17 21 -54 50 -83 65 l-51 27 -2345 2 c-1290 0 -2358 -2 -2375 -6z m4693
-207 l22 -15 0 -1529 0 -1529 -22 -15 c-20 -14 -258 -16 -2338 -16 -2080 0
-2318 2 -2338 16 l-22 15 0 1529 0 1529 22 15 c34 24 4642 24 4676 0z m-1915
-3401 c8 -134 36 -251 86 -358 39 -84 106 -190 135 -214 9 -7 16 -17 16 -22 0
-5 -288 -9 -660 -9 -372 0 -660 4 -660 9 0 5 7 15 16 22 29 24 96 130 135 214
50 107 78 224 86 358 l6 107 417 0 417 0 6 -107z"/>
<path d="M526 4390 c-49 -15 -94 -67 -106 -124 -8 -36 -10 -378 -8 -1141 l3
-1090 24 -39 c15 -24 40 -45 65 -57 40 -18 114 -19 2075 -19 l2035 0 42 21
c26 12 53 36 66 57 l23 37 3 1090 c2 600 0 1109 -3 1133 -8 55 -62 117 -113
132 -46 12 -4064 12 -4106 0z m4024 -1230 l0 -1040 -1970 0 -1970 0 0 1040 0
1040 1970 0 1970 0 0 -1040z"/>
</g>
</svg>
