<?xml version="1.0" standalone="no"?>
<!DOCTYPE svg PUBLIC "-//W3C//DTD SVG 20010904//EN"
 "http://www.w3.org/TR/2001/REC-SVG-20010904/DTD/svg10.dtd">
<svg version="1.0" xmlns="http://www.w3.org/2000/svg"
 width="512.000000pt" height="512.000000pt" viewBox="0 0 512.000000 512.000000"
 preserveAspectRatio="xMidYMid meet">

<g transform="translate(0.000000,512.000000) scale(0.100000,-0.100000)"
fill="#ffffff" stroke="none">
<path d="M2380 5114 c-19 -2 -78 -9 -130 -14 -330 -36 -695 -160 -990 -336
-375 -224 -680 -529 -904 -904 -175 -292 -291 -632 -338 -990 -16 -123 -16
-497 0 -620 82 -623 356 -1150 820 -1581 256 -239 575 -425 922 -539 274 -91
491 -124 800 -124 228 0 329 9 530 50 689 141 1304 583 1674 1204 175 292 291
632 338 990 16 123 16 497 0 620 -47 358 -163 698 -338 990 -224 375 -529 680
-904 904 -289 173 -634 291 -980 336 -88 12 -438 21 -500 14z m270 -375 c216
-148 402 -343 566 -589 53 -79 114 -183 114 -194 0 -3 -346 -6 -770 -6 -423 0
-770 3 -770 6 0 11 61 115 114 194 164 246 350 441 566 589 40 28 81 51 90 51
9 0 50 -23 90 -51z m-666 -11 c-10 -13 -46 -52 -79 -88 -138 -147 -283 -356
-391 -564 l-66 -126 -329 0 c-181 0 -329 3 -329 8 0 4 40 52 88 107 209 238
529 465 827 586 63 25 274 96 294 99 2 0 -4 -10 -15 -22z m1394 -64 c236 -92
462 -228 664 -402 100 -86 288 -285 288 -304 0 -5 -148 -8 -329 -8 l-329 0
-66 126 c-108 208 -253 417 -391 564 -33 36 -69 75 -79 87 l-18 22 73 -20 c41
-12 125 -41 187 -65z m-2052 -1031 c-89 -282 -144 -565 -161 -820 l-7 -103
-424 0 -424 0 0 43 c0 48 21 189 44 292 37 173 103 358 182 518 l44 87 376 0
c353 0 375 -1 370 -17z m2181 -88 c69 -206 122 -455 143 -680 5 -60 10 -120
10 -132 l0 -23 -1100 0 -1100 0 0 23 c0 113 45 417 86 582 22 88 89 307 101
328 2 4 414 6 915 5 l911 -3 34 -100z m1077 18 c79 -160 145 -345 182 -518 23
-103 44 -244 44 -292 l0 -43 -424 0 -424 0 -7 103 c-17 255 -72 538 -161 820
-5 16 17 17 370 17 l376 0 44 -87z m-3419 -1255 c17 -256 72 -539 161 -820 5
-17 -17 -18 -370 -18 l-376 0 -44 88 c-79 159 -145 344 -182 517 -23 103 -44
244 -44 293 l0 42 424 0 424 0 7 -102z m2495 80 c0 -13 -5 -72 -10 -133 -21
-225 -74 -474 -143 -680 l-34 -100 -913 0 -913 0 -34 100 c-69 206 -122 455
-143 680 -5 61 -10 120 -10 133 l0 22 1100 0 1100 0 0 -22z m1150 -20 c0 -49
-21 -190 -44 -293 -37 -173 -103 -358 -182 -517 l-44 -88 -376 0 c-353 0 -375
1 -370 18 89 281 144 564 161 820 l7 102 424 0 424 0 0 -42z m-3296 -1324
c108 -208 253 -417 391 -564 33 -36 69 -75 79 -87 l18 -22 -73 20 c-290 81
-601 252 -851 467 -100 86 -288 285 -288 305 0 4 148 7 329 7 l329 0 66 -126z
m1816 120 c0 -22 -127 -220 -224 -349 -117 -156 -386 -403 -512 -471 -33 -18
-35 -18 -68 0 -126 68 -395 315 -512 471 -97 129 -224 327 -224 349 0 3 347 6
770 6 424 0 770 -3 770 -6z m1000 -1 c0 -20 -188 -219 -288 -305 -250 -215
-561 -386 -851 -467 l-73 -20 18 22 c10 12 46 51 79 87 138 147 283 356 391
564 l66 126 329 0 c181 0 329 -3 329 -7z"/>
</g>
</svg>
